# xmcd
#
# Track frame offsets: 
#        150
#        12031
#        24369
#        37588
#        53956
#        69636
#        84107
#        99150
#        111593
#        124520
#        141193
#        152729
#
# Disc length: 2302 seconds
#
# Revision: 0
# Processed by: cddbd v1.5.2PL0 Copyright (c) Steve Scherf et al.
# Submitted via: ExactAudioCopy v0.99pb5
#
DISCID=8808fc0c
DTITLE=Sanne - Cowboy's Sweetheart
DYEAR=2009
DGENRE=Country
TTITLE0=Make Love To Me
TTITLE1=It Only Hurts For A Little While
TTITLE2=Cowboy's Sweetheart
TTITLE3=Boulder To Birmingham
TTITLE4=Jamais Assez Loin
TTITLE5=I Fall To Pieces
TTITLE6=Blues Run The Game
TTITLE7=Soulful Shade Of Blue
TTITLE8=Le Tourbillon
TTITLE9=Drunken Sailor - Dronken Zeeman
TTITLE10=Elimde Sise
TTITLE11=Big Ol' Train
EXTD=
EXTT0=
EXTT1=
EXTT2=
EXTT3=
EXTT4=
EXTT5=
EXTT6=
EXTT7=
EXTT8=
EXTT9=
EXTT10=
EXTT11=
PLAYORDER=
